<svg version="1.0" preserveAspectRatio="xMidYMid meet" viewBox="0 207.225538209162 1441.6197975253092 317.519997256" zoomAndPan="magnify" xmlns:xlink="http://www.w3.org/1999/xlink" xmlns="http://www.w3.org/2000/svg" style="max-height: 500px" width="1441.6197975253092" height="317.519997256"><defs><g/></defs><path fill-rule="nonzero" fill-opacity="1" d="M 0 278.738281 C 0 258.015625 22.613281 245.21875 40.386719 255.878906 L 107.445312 296.097656 C 123.507812 305.734375 133.339844 323.089844 133.339844 341.816406 L 133.339844 388.074219 C 133.339844 406.804688 123.507812 424.160156 107.445312 433.792969 L 40.386719 474.015625 C 22.613281 484.675781 0 471.875 0 451.15625 Z M 0 278.738281" fill="#fa776c"/><path fill-rule="nonzero" fill-opacity="1" d="M 276.960938 204.996094 C 291.082031 204.996094 298.28125 221.957031 288.464844 232.109375 L 253.066406 268.710938 C 243.019531 279.101562 229.179688 284.972656 214.71875 284.972656 L 148.113281 284.972656 C 138.445312 284.972656 128.960938 282.34375 120.671875 277.375 L 49.535156 234.707031 C 35.621094 226.359375 41.539062 204.996094 57.769531 204.996094 Z M 276.960938 204.996094" fill="#624cf5"/><path fill-rule="nonzero" fill-opacity="1" d="M 276.960938 524.898438 C 291.082031 524.898438 298.28125 507.9375 288.464844 497.785156 L 253.066406 461.183594 C 243.019531 450.789062 229.179688 444.921875 214.71875 444.921875 L 148.113281 444.921875 C 138.445312 444.921875 128.960938 447.546875 120.671875 452.519531 L 49.535156 495.1875 C 35.621094 503.53125 41.539062 524.898438 57.769531 524.898438 Z M 276.960938 524.898438" fill="#624cf5"/><path fill-rule="nonzero" fill-opacity="1" d="M 189.34375 324.960938 C 190.652344 324.960938 191.957031 325.023438 193.261719 325.152344 C 194.566406 325.28125 195.859375 325.472656 197.144531 325.726562 C 198.429688 325.984375 199.699219 326.300781 200.953125 326.679688 C 202.207031 327.0625 203.441406 327.5 204.648438 328.003906 C 205.859375 328.503906 207.042969 329.0625 208.199219 329.679688 C 209.355469 330.296875 210.476562 330.96875 211.566406 331.699219 C 212.65625 332.425781 213.707031 333.203125 214.71875 334.035156 C 215.730469 334.867188 216.699219 335.746094 217.628906 336.671875 C 218.554688 337.597656 219.433594 338.566406 220.261719 339.578125 C 221.09375 340.589844 221.875 341.640625 222.601562 342.730469 C 223.328125 343.820312 224.003906 344.941406 224.621094 346.097656 C 225.238281 347.25 225.796875 348.433594 226.296875 349.644531 C 226.800781 350.855469 227.242188 352.085938 227.621094 353.339844 C 228 354.59375 228.320312 355.859375 228.574219 357.144531 C 228.832031 358.429688 229.023438 359.722656 229.152344 361.027344 C 229.28125 362.332031 229.34375 363.636719 229.34375 364.945312 C 229.34375 366.257812 229.28125 367.5625 229.152344 368.867188 C 229.023438 370.167969 228.832031 371.464844 228.574219 372.746094 C 228.320312 374.03125 228 375.300781 227.621094 376.554688 C 227.242188 377.808594 226.800781 379.039062 226.296875 380.25 C 225.796875 381.460938 225.238281 382.640625 224.621094 383.796875 C 224.003906 384.953125 223.328125 386.074219 222.601562 387.164062 C 221.875 388.25 221.09375 389.300781 220.261719 390.316406 C 219.433594 391.328125 218.554688 392.296875 217.628906 393.222656 C 216.699219 394.148438 215.730469 395.027344 214.71875 395.859375 C 213.707031 396.6875 212.65625 397.46875 211.566406 398.195312 C 210.476562 398.921875 209.355469 399.59375 208.199219 400.210938 C 207.042969 400.828125 205.859375 401.390625 204.648438 401.890625 C 203.441406 402.390625 202.207031 402.832031 200.953125 403.210938 C 199.699219 403.59375 198.429688 403.910156 197.144531 404.164062 C 195.859375 404.421875 194.566406 404.613281 193.261719 404.742188 C 191.957031 404.871094 190.652344 404.933594 189.34375 404.933594 C 188.03125 404.933594 186.726562 404.871094 185.421875 404.742188 C 184.117188 404.613281 182.824219 404.421875 181.539062 404.164062 C 180.253906 403.910156 178.984375 403.59375 177.730469 403.210938 C 176.476562 402.832031 175.246094 402.390625 174.035156 401.890625 C 172.824219 401.390625 171.640625 400.828125 170.484375 400.210938 C 169.328125 399.59375 168.207031 398.921875 167.117188 398.195312 C 166.027344 397.46875 164.976562 396.6875 163.964844 395.859375 C 162.953125 395.027344 161.984375 394.148438 161.054688 393.222656 C 160.128906 392.296875 159.25 391.328125 158.421875 390.316406 C 157.589844 389.300781 156.808594 388.25 156.082031 387.164062 C 155.355469 386.074219 154.679688 384.953125 154.0625 383.796875 C 153.445312 382.640625 152.886719 381.460938 152.386719 380.25 C 151.882812 379.039062 151.441406 377.808594 151.0625 376.554688 C 150.683594 375.300781 150.363281 374.03125 150.109375 372.746094 C 149.851562 371.464844 149.660156 370.167969 149.53125 368.867188 C 149.402344 367.5625 149.339844 366.257812 149.339844 364.945312 C 149.339844 363.636719 149.402344 362.332031 149.53125 361.027344 C 149.660156 359.722656 149.851562 358.429688 150.109375 357.144531 C 150.363281 355.859375 150.683594 354.59375 151.0625 353.339844 C 151.441406 352.085938 151.882812 350.855469 152.386719 349.644531 C 152.886719 348.433594 153.445312 347.25 154.0625 346.097656 C 154.679688 344.941406 155.355469 343.820312 156.082031 342.730469 C 156.808594 341.640625 157.589844 340.589844 158.421875 339.578125 C 159.25 338.566406 160.128906 337.597656 161.054688 336.671875 C 161.984375 335.746094 162.953125 334.867188 163.964844 334.035156 C 164.976562 333.203125 166.027344 332.425781 167.117188 331.699219 C 168.207031 330.96875 169.328125 330.296875 170.484375 329.679688 C 171.640625 329.0625 172.824219 328.503906 174.035156 328.003906 C 175.246094 327.5 176.476562 327.0625 177.730469 326.679688 C 178.984375 326.300781 180.253906 325.984375 181.539062 325.726562 C 182.824219 325.472656 184.117188 325.28125 185.421875 325.152344 C 186.726562 325.023438 188.03125 324.960938 189.34375 324.960938 Z M 189.34375 324.960938" fill="#fa776c"/><g fill-opacity="1" fill="#000000"><g transform="translate(328.078173, 436.71801)"><g><path d="M 47.796875 -115.90625 L 47.796875 -86.78125 L 94.78125 -86.78125 L 94.78125 -59.703125 L 47.796875 -59.703125 L 47.796875 -28.109375 L 100.9375 -28.109375 L 100.9375 0 L 12.71875 0 L 12.71875 -144.015625 L 100.9375 -144.015625 L 100.9375 -115.90625 Z M 47.796875 -115.90625"/></g></g></g><g fill-opacity="1" fill="#000000"><g transform="translate(439.061988, 436.71801)"><g><path d="M 64.21875 -32.828125 L 89.03125 -114.484375 L 126.375 -114.484375 L 85.75 0 L 42.46875 0 L 1.84375 -114.484375 L 39.390625 -114.484375 Z M 64.21875 -32.828125"/></g></g></g><g fill-opacity="1" fill="#000000"><g transform="translate(567.483171, 436.71801)"><g><path d="M 120.625 -59.078125 C 120.625 -55.796875 120.421875 -52.378906 120.015625 -48.828125 L 40.625 -48.828125 C 41.164062 -41.710938 43.453125 -36.273438 47.484375 -32.515625 C 51.523438 -28.753906 56.488281 -26.875 62.375 -26.875 C 71.125 -26.875 77.207031 -30.566406 80.625 -37.953125 L 117.96875 -37.953125 C 116.050781 -30.429688 112.59375 -23.660156 107.59375 -17.640625 C 102.601562 -11.617188 96.347656 -6.898438 88.828125 -3.484375 C 81.304688 -0.0664062 72.894531 1.640625 63.59375 1.640625 C 52.382812 1.640625 42.398438 -0.75 33.640625 -5.53125 C 24.890625 -10.320312 18.050781 -17.160156 13.125 -26.046875 C 8.207031 -34.941406 5.75 -45.335938 5.75 -57.234375 C 5.75 -69.140625 8.175781 -79.535156 13.03125 -88.421875 C 17.882812 -97.304688 24.6875 -104.144531 33.4375 -108.9375 C 42.195312 -113.726562 52.25 -116.125 63.59375 -116.125 C 74.675781 -116.125 84.523438 -113.796875 93.140625 -109.140625 C 101.753906 -104.492188 108.488281 -97.859375 113.34375 -89.234375 C 118.195312 -80.617188 120.625 -70.566406 120.625 -59.078125 Z M 84.734375 -68.3125 C 84.734375 -74.332031 82.679688 -79.117188 78.578125 -82.671875 C 74.472656 -86.234375 69.34375 -88.015625 63.1875 -88.015625 C 57.300781 -88.015625 52.34375 -86.300781 48.3125 -82.875 C 44.28125 -79.457031 41.785156 -74.601562 40.828125 -68.3125 Z M 84.734375 -68.3125"/></g></g></g><g fill-opacity="1" fill="#000000"><g transform="translate(693.8529, 436.71801)"><g><path d="M 82.46875 -115.703125 C 95.875 -115.703125 106.578125 -111.359375 114.578125 -102.671875 C 122.578125 -93.992188 126.578125 -82.0625 126.578125 -66.875 L 126.578125 0 L 91.703125 0 L 91.703125 -62.15625 C 91.703125 -69.820312 89.71875 -75.773438 85.75 -80.015625 C 81.789062 -84.253906 76.457031 -86.375 69.75 -86.375 C 63.050781 -86.375 57.71875 -84.253906 53.75 -80.015625 C 49.78125 -75.773438 47.796875 -69.820312 47.796875 -62.15625 L 47.796875 0 L 12.71875 0 L 12.71875 -114.484375 L 47.796875 -114.484375 L 47.796875 -99.296875 C 51.359375 -104.359375 56.144531 -108.359375 62.15625 -111.296875 C 68.175781 -114.234375 74.945312 -115.703125 82.46875 -115.703125 Z M 82.46875 -115.703125"/></g></g></g><g fill-opacity="1" fill="#000000"><g transform="translate(832.12109, 436.71801)"><g><path d="M 76.515625 -29.75 L 76.515625 0 L 58.671875 0 C 45.953125 0 36.035156 -3.109375 28.921875 -9.328125 C 21.816406 -15.554688 18.265625 -25.710938 18.265625 -39.796875 L 18.265625 -85.34375 L 4.3125 -85.34375 L 4.3125 -114.484375 L 18.265625 -114.484375 L 18.265625 -142.375 L 53.34375 -142.375 L 53.34375 -114.484375 L 76.3125 -114.484375 L 76.3125 -85.34375 L 53.34375 -85.34375 L 53.34375 -39.390625 C 53.34375 -35.972656 54.160156 -33.507812 55.796875 -32 C 57.441406 -30.5 60.179688 -29.75 64.015625 -29.75 Z M 76.515625 -29.75"/></g></g></g><g fill-opacity="1" fill="#000000"><g transform="translate(915.41021, 436.71801)"><g/></g></g><g fill-opacity="1" fill="#000000"><g transform="translate(958.901089, 436.71801)"><g><path d="M 106.46875 -144.015625 L 106.46875 -115.90625 L 47.796875 -115.90625 L 47.796875 -85.546875 L 91.703125 -85.546875 L 91.703125 -58.265625 L 47.796875 -58.265625 L 47.796875 0 L 12.71875 0 L 12.71875 -144.015625 Z M 106.46875 -144.015625"/></g></g></g><g fill-opacity="1" fill="#000000"><g transform="translate(1071.115767, 436.71801)"><g><path d="M 47.796875 -151.8125 L 47.796875 0 L 12.71875 0 L 12.71875 -151.8125 Z M 47.796875 -151.8125"/></g></g></g><g fill-opacity="1" fill="#000000"><g transform="translate(1131.633745, 436.71801)"><g><path d="M 64.828125 1.640625 C 53.609375 1.640625 43.519531 -0.75 34.5625 -5.53125 C 25.601562 -10.320312 18.5625 -17.160156 13.4375 -26.046875 C 8.3125 -34.941406 5.75 -45.335938 5.75 -57.234375 C 5.75 -68.992188 8.347656 -79.351562 13.546875 -88.3125 C 18.742188 -97.269531 25.851562 -104.144531 34.875 -108.9375 C 43.90625 -113.726562 54.023438 -116.125 65.234375 -116.125 C 76.453125 -116.125 86.570312 -113.726562 95.59375 -108.9375 C 104.625 -104.144531 111.738281 -97.269531 116.9375 -88.3125 C 122.132812 -79.351562 124.734375 -68.992188 124.734375 -57.234375 C 124.734375 -45.472656 122.097656 -35.113281 116.828125 -26.15625 C 111.566406 -17.195312 104.390625 -10.320312 95.296875 -5.53125 C 86.203125 -0.75 76.046875 1.640625 64.828125 1.640625 Z M 64.828125 -28.71875 C 71.523438 -28.71875 77.234375 -31.179688 81.953125 -36.109375 C 86.671875 -41.035156 89.03125 -48.078125 89.03125 -57.234375 C 89.03125 -66.398438 86.738281 -73.441406 82.15625 -78.359375 C 77.582031 -83.285156 71.941406 -85.75 65.234375 -85.75 C 58.398438 -85.75 52.722656 -83.320312 48.203125 -78.46875 C 43.691406 -73.613281 41.4375 -66.535156 41.4375 -57.234375 C 41.4375 -48.078125 43.660156 -41.035156 48.109375 -36.109375 C 52.554688 -31.179688 58.128906 -28.71875 64.828125 -28.71875 Z M 64.828125 -28.71875"/></g></g></g><g fill-opacity="1" fill="#000000"><g transform="translate(1262.311519, 436.71801)"><g><path d="M 177.046875 -114.484375 L 146.078125 0 L 107.296875 0 L 89.25 -74.265625 L 70.578125 0 L 32 0 L 0.828125 -114.484375 L 35.90625 -114.484375 L 52.109375 -32.625 L 71.390625 -114.484375 L 108.53125 -114.484375 L 128.015625 -33.03125 L 144.015625 -114.484375 Z M 177.046875 -114.484375"/></g></g></g></svg>